<?xml version="1.0" encoding="UTF-8"?>
<svg xmlns="http://www.w3.org/2000/svg" width="101.6mm" height="128.5mm" viewBox="0 0 101.6 128.5">
  <!-- 20HP Panel -->
  <rect width="101.6" height="128.5" fill="#1a1a1a"/>

  <!-- Panel border -->
  <rect x="0.5" y="0.5" width="100.6" height="127.5" fill="none" stroke="#333" stroke-width="1"/>

  <!-- Title -->
  <text x="50.8" y="7" text-anchor="middle" font-family="Arial, sans-serif" font-size="5" font-weight="bold" fill="#e0e0e0">OCTO LFO</text>

  <!-- Top section labels (y=12mm is where jacks are, labels above) -->
  <text x="8" y="9" text-anchor="middle" font-family="Arial, sans-serif" font-size="2.5" fill="#888">CLK</text>
  <text x="20" y="9" text-anchor="middle" font-family="Arial, sans-serif" font-size="2.5" fill="#888">RST</text>
  <text x="35" y="9" text-anchor="middle" font-family="Arial, sans-serif" font-size="2.5" fill="#888">RATE</text>
  <text x="50" y="7" text-anchor="middle" font-family="Arial, sans-serif" font-size="2" fill="#666">BI</text>
  <text x="50" y="17" text-anchor="middle" font-family="Arial, sans-serif" font-size="2" fill="#666">UNI</text>
  <text x="58" y="6" text-anchor="middle" font-family="Arial, sans-serif" font-size="2" fill="#555">LOCK</text>

  <!-- Separator line -->
  <line x1="2" y1="17" x2="99.6" y2="17" stroke="#333" stroke-width="0.5"/>

  <!-- Column headers (rows start at y=24mm) -->
  <g font-family="Arial, sans-serif" font-size="2.5" fill="#666" text-anchor="middle">
    <text x="8" y="21">RATE</text>
    <text x="18" y="21">WAVE</text>
    <text x="28" y="21">SKEW</text>
    <text x="38" y="21">CURV</text>
    <text x="48" y="21">FOLD</text>
    <text x="62" y="21">SCOPE</text>
    <text x="92" y="21">OUT</text>
  </g>

  <!-- Row numbers and dividers (y = 24 + i*12 for i=0..7) -->
  <!-- Row 1: y=24, Row 2: y=36, etc -->
  <g font-family="Arial, sans-serif" font-size="3" fill="#444" font-weight="bold">
    <text x="2.5" y="25">1</text>
    <text x="2.5" y="37">2</text>
    <text x="2.5" y="49">3</text>
    <text x="2.5" y="61">4</text>
    <text x="2.5" y="73">5</text>
    <text x="2.5" y="85">6</text>
    <text x="2.5" y="97">7</text>
    <text x="2.5" y="109">8</text>
  </g>

  <!-- Row divider lines -->
  <g stroke="#282828" stroke-width="0.3">
    <line x1="5" y1="30" x2="99" y2="30"/>
    <line x1="5" y1="42" x2="99" y2="42"/>
    <line x1="5" y1="54" x2="99" y2="54"/>
    <line x1="5" y1="66" x2="99" y2="66"/>
    <line x1="5" y1="78" x2="99" y2="78"/>
    <line x1="5" y1="90" x2="99" y2="90"/>
    <line x1="5" y1="102" x2="99" y2="102"/>
    <line x1="5" y1="114" x2="99" y2="114"/>
  </g>

  <!-- Scope area backgrounds (decorative) -->
  <g fill="#0a0a0a" stroke="#222" stroke-width="0.3">
    <rect x="53" y="20" width="18" height="8" rx="1"/>
    <rect x="53" y="32" width="18" height="8" rx="1"/>
    <rect x="53" y="44" width="18" height="8" rx="1"/>
    <rect x="53" y="56" width="18" height="8" rx="1"/>
    <rect x="53" y="68" width="18" height="8" rx="1"/>
    <rect x="53" y="80" width="18" height="8" rx="1"/>
    <rect x="53" y="92" width="18" height="8" rx="1"/>
    <rect x="53" y="104" width="18" height="8" rx="1"/>
  </g>

  <!-- Brand at bottom -->
  <text x="50.8" y="125" text-anchor="middle" font-family="Arial, sans-serif" font-size="3" fill="#333">WIGGLE ROOM</text>
</svg>
